<svg xmlns="http://www.w3.org/2000/svg" width="800" height="460" viewBox="0 0 800 460">
  <g id="Card" transform="translate(-200 -220)">
    <g id="rectangle-3" transform="translate(200 220)" fill="rgba(255,255,255,0.2)" stroke="rgba(255,255,255,0.5)" stroke-width="2">
      <rect width="800" height="460" rx="48" stroke="none"/>
      <rect x="1" y="1" width="798" height="458" rx="47" fill="none"/>
    </g>
    <text id="_2243_5673_8524_5238" data-name="2243 5673 8524 5238" transform="translate(284 593)" fill="#fff" font-size="37" font-family="SegoeUI, Segoe UI" opacity="0.5" style="mix-blend-mode: overlay;isolation: isolate"><tspan x="0" y="0">2243 5673 8524 5238</tspan></text>
    <g id="Union_1" data-name="Union 1" transform="translate(826 285)" fill="none" opacity="0.5" style="mix-blend-mode: overlay;isolation: isolate">
      <path d="M49.441,60.737A33.351,33.351,0,0,1,33.061,65C14.8,65,0,50.45,0,32.5S14.8,0,33.061,0A33.35,33.35,0,0,1,49.441,4.264,32.493,32.493,0,1,1,65.53,65,32.3,32.3,0,0,1,49.441,60.737Z" stroke="none"/>
      <path d="M 65.52989959716797 61.00070190429688 C 69.37454986572266 61.00070190429688 73.10209655761719 60.24788284301758 76.60901641845703 58.76314926147461 C 79.99853515625 57.32811737060547 83.04354858398438 55.27285003662109 85.65944671630859 52.65443420410156 C 88.27559661865234 50.03578567504883 90.32916259765625 46.98743438720703 91.76308441162109 43.59406661987305 C 93.24686431884766 40.08270263671875 93.99919891357422 36.35038375854492 93.99919891357422 32.50080108642578 C 93.99919891357422 28.6509838104248 93.24684906005859 24.91848373413086 91.76306915283203 21.40698432922363 C 90.32914733886719 18.01350021362305 88.27558135986328 14.96505069732666 85.65943145751953 12.34635066986084 C 83.04353332519531 9.727900505065918 79.99853515625 7.672600746154785 76.60901641845703 6.23756742477417 C 73.10209655761719 4.752817630767822 69.37454986572266 4.000000953674316 65.52989959716797 4.000000953674316 C 60.57648468017578 4.000000953674316 55.70001602172852 5.291851043701172 51.42765045166016 7.73590087890625 L 49.4592170715332 8.861950874328613 L 47.48215103149414 7.751151084899902 C 43.11433410644531 5.297134399414062 38.12744903564453 4.000000953674316 33.06060028076172 4.000000953674316 C 29.12719917297363 4.000000953674316 25.31419944763184 4.756184101104736 21.72751617431641 6.247534275054932 C 18.26560020446777 7.687000751495361 15.1567325592041 9.747501373291016 12.48728275299072 12.3717679977417 C 9.822599411010742 14.99135112762451 7.7315993309021 18.0393009185791 6.272366046905518 21.43093490600586 C 4.764532566070557 24.93553352355957 3.999999523162842 28.65998458862305 3.999999523162842 32.50080108642578 C 3.999999523162842 36.34138488769531 4.764532566070557 40.06563568115234 6.27234935760498 43.57010269165039 C 7.731582641601562 46.96163558959961 9.822566032409668 50.00948333740234 12.48726654052734 52.6290168762207 C 15.15671634674072 55.25325012207031 18.26558303833008 57.31371688842773 21.72751617431641 58.7531852722168 C 25.31419944763184 60.24453353881836 29.12719917297363 61.00070190429688 33.06060028076172 61.00070190429688 C 38.12741470336914 61.00070190429688 43.11431503295898 59.70358276367188 47.4821662902832 57.24956893920898 L 49.4592170715332 56.13880157470703 L 51.42763137817383 57.26481628417969 C 55.70005035400391 59.7088508605957 60.57653427124023 61.00070190429688 65.52989959716797 61.00070190429688 M 65.52989959716797 65.00070190429688 C 59.67644882202148 65.00070190429688 54.18381500244141 63.44973373413086 49.44144821166992 60.73686599731445 C 44.61285018920898 63.44973373413086 39.02040100097656 65.00070190429688 33.06060028076172 65.00070190429688 C 14.80139923095703 65.00070190429688 -5.432128773463774e-07 50.44950103759766 -5.432128773463774e-07 32.50080108642578 C -5.432128773463774e-07 14.55120086669922 14.80139923095703 9.521484116703505e-07 33.06060028076172 9.521484116703505e-07 C 39.02040100097656 9.521484116703505e-07 44.61285018920898 1.55095100402832 49.44144821166992 4.263867855072021 C 54.18381500244141 1.55095100402832 59.67644882202148 9.521484116703505e-07 65.52989959716797 9.521484116703505e-07 C 83.46240234375 9.521484116703505e-07 97.99919891357422 14.55120086669922 97.99919891357422 32.50080108642578 C 97.99919891357422 50.44950103759766 83.46240234375 65.00070190429688 65.52989959716797 65.00070190429688 Z" stroke="none" fill="#fff"/>
    </g>
    <path id="Intersection_1" data-name="Intersection 1" d="M0,25.81C0,14.759,6.585,5.117,16.357,0c9.95,5.117,16.654,14.759,16.654,25.81S26.307,46.5,16.357,51.619C6.585,46.5,0,36.861,0,25.81Z" transform="translate(859.207 291.453)" fill="none" stroke="#fff" stroke-width="4" opacity="0.5" style="mix-blend-mode: overlay;isolation: isolate"/>
    <path id="Shape" d="M43.986,8.926a2.775,2.775,0,0,1-3.924,3.926,25.007,25.007,0,0,0-35.325,0A2.775,2.775,0,0,1,.813,8.926a30.565,30.565,0,0,1,43.173,0Z" transform="translate(889.255 558.356) rotate(90)" fill="#fff" opacity="0.5" style="mix-blend-mode: overlay;isolation: isolate"/>
    <path id="Shape-2" data-name="Shape" d="M28.288,5.68a2.776,2.776,0,0,1-3.926,3.926,13.892,13.892,0,0,0-19.624,0A2.775,2.775,0,1,1,.813,5.68a19.451,19.451,0,0,1,27.474,0Z" transform="translate(878.159 566.203) rotate(90)" fill="#fff" opacity="0.5" style="mix-blend-mode: overlay;isolation: isolate"/>
    <path id="Shape-3" data-name="Shape" d="M12.622,2.434A2.775,2.775,0,1,1,8.7,6.358a2.775,2.775,0,0,0-3.924,0A2.775,2.775,0,1,1,.847,2.434a8.337,8.337,0,0,1,11.774,0Z" transform="translate(867.063 574.019) rotate(90)" fill="#fff" opacity="0.5" style="mix-blend-mode: overlay;isolation: isolate"/>
    <path id="flash" d="M37.776,24.969h-14.7L35.769,2.652A1.775,1.775,0,0,0,34.226,0h-21.3a1.775,1.775,0,0,0-1.684,1.216L.591,33.284a1.775,1.775,0,0,0,1.684,2.335H17.339l-9.6,22.5A1.775,1.775,0,0,0,10.7,59.99l28.4-32.069a1.777,1.777,0,0,0-1.329-2.952ZM15.3,49.445l6.357-14.9a1.776,1.776,0,0,0-1.633-2.472H4.735L14.206,3.55H31.174L18.483,25.866a1.776,1.776,0,0,0,1.543,2.653H33.833Zm0,0" transform="translate(283.384 289.095)" fill="#fff" opacity="0.5" style="mix-blend-mode: overlay;isolation: isolate"/>
  </g>
</svg>
